<?xml version="1.0" standalone="no"?>
<!DOCTYPE svg PUBLIC "-//W3C//DTD SVG 20010904//EN"
 "http://www.w3.org/TR/2001/REC-SVG-20010904/DTD/svg10.dtd">
<svg version="1.0" xmlns="http://www.w3.org/2000/svg"
 width="596.000000pt" height="600.000000pt" viewBox="0 0 596.000000 600.000000"
 preserveAspectRatio="xMidYMid meet">

<g transform="translate(0.000000,600.000000) scale(0.100000,-0.100000)"
fill="#000000" stroke="none">
<path d="M2834 5877 c-72 -62 -220 -186 -330 -277 -911 -754 -1445 -1402
-1759 -2136 -124 -289 -213 -645 -229 -919 -4 -55 -9 -135 -12 -178 l-5 -77
79 0 79 0 6 153 c27 647 306 1302 831 1952 239 296 606 665 961 966 179 152
507 420 519 425 7 3 57 -33 112 -78 56 -46 177 -146 270 -223 355 -294 686
-605 913 -860 620 -692 955 -1371 1021 -2063 5 -59 10 -144 10 -189 l0 -83 79
0 79 0 -4 98 c-22 466 -114 827 -318 1247 -229 472 -534 883 -1001 1350 -229
230 -389 375 -649 590 -94 77 -243 202 -333 278 -90 75 -169 137 -176 136 -6
0 -71 -51 -143 -112z"/>
<path d="M2807 4823 c-4 -3 -7 -127 -7 -275 l0 -268 -377 -2 -378 -3 -3 -97
-3 -98 381 0 380 0 0 -254 0 -254 -87 -48 c-58 -33 -113 -75 -165 -125 l-77
-76 -27 39 c-35 49 -83 92 -136 119 -84 43 -229 18 -314 -54 -21 -18 -89 -72
-151 -119 l-112 -86 49 -6 c90 -12 177 -61 204 -114 8 -16 16 -78 19 -152 7
-153 32 -256 89 -370 56 -110 152 -210 256 -264 77 -40 92 -42 365 -62 l87 -6
0 -414 c0 -228 -2 -414 -4 -414 -2 0 -33 17 -67 38 -354 215 -816 414 -1232
532 -155 44 -384 91 -562 115 -128 17 -505 32 -547 22 l-25 -7 -6 -157 c-6
-181 -14 -214 -92 -380 l-54 -113 -105 0 -106 0 5 -87 c4 -49 8 -103 11 -121
l5 -32 213 0 c540 0 1121 -57 1482 -145 298 -73 691 -204 859 -286 124 -60
156 -91 162 -156 l5 -49 238 0 238 0 5 49 c3 35 12 56 33 78 77 81 512 242
954 355 376 95 950 154 1507 154 l222 0 5 43 c3 23 7 77 10 120 l6 77 -105 0
-105 0 -25 50 c-103 203 -125 289 -125 484 l0 116 -26 6 c-43 11 -419 -3 -549
-21 -612 -82 -1244 -314 -1852 -681 -67 -41 -124 -74 -127 -74 -3 0 -6 185 -6
410 0 266 4 410 10 410 5 0 29 -17 52 -37 61 -56 80 -107 86 -235 6 -125 -8
-118 125 -62 142 61 212 130 237 233 11 46 13 48 65 65 107 33 193 116 210
201 l6 30 -21 -28 c-48 -61 -150 -100 -291 -113 l-79 -7 0 -61 c0 -79 -22
-121 -85 -164 l-49 -33 -12 59 c-48 234 -232 332 -677 362 -138 9 -158 13
-213 40 -78 38 -172 136 -213 222 -45 96 -63 180 -70 333 -4 77 -12 149 -18
160 -30 54 -113 105 -170 105 -35 0 -22 11 47 40 30 12 69 35 86 50 45 39 115
64 159 56 71 -14 141 -99 209 -256 50 -114 112 -217 139 -231 21 -11 21 -11 6
7 -103 120 -77 289 64 420 101 95 190 139 470 239 145 51 302 173 397 307 26
37 50 64 54 61 14 -14 5 -173 -13 -245 -26 -100 -62 -170 -122 -233 l-49 -52
21 -83 c43 -169 13 -279 -106 -387 -62 -57 -56 -62 25 -25 50 23 133 112 164
174 35 72 51 163 39 231 -9 52 -8 55 23 91 80 93 144 287 144 441 0 40 -9 102
-20 143 -11 39 -20 76 -20 82 0 6 33 10 80 10 l80 0 0 100 0 100 -385 0 -385
0 0 275 0 275 -113 0 c-63 0 -117 -3 -120 -7z m683 -749 c0 -3 -15 -34 -32
-68 -50 -94 -202 -241 -305 -294 -44 -23 -88 -42 -97 -42 -14 0 -16 23 -16
198 0 109 3 202 7 205 8 9 443 9 443 1z m-2725 -2099 c326 -26 880 -171 1312
-344 209 -83 468 -226 776 -427 l127 -83 128 83 c492 322 791 461 1311 611
495 142 979 209 1055 146 20 -16 21 -55 3 -70 -8 -6 -124 -27 -258 -46 -134
-19 -298 -48 -364 -64 -128 -32 -470 -140 -463 -147 2 -2 20 1 39 6 123 36
819 130 958 130 73 0 93 -3 113 -20 29 -22 38 -47 28 -75 -7 -19 -17 -20 -261
-20 -217 -1 -271 -4 -372 -23 -148 -27 -284 -61 -460 -114 -144 -43 -175 -59
-66 -34 80 19 381 60 604 82 208 21 444 24 501 7 51 -16 108 -54 112 -74 3
-14 -26 -17 -230 -22 -324 -8 -642 -43 -989 -108 -491 -91 -925 -245 -1292
-458 -49 -28 -93 -51 -98 -51 -5 0 -57 28 -116 62 -277 159 -631 299 -976 383
-403 100 -867 162 -1285 172 -204 5 -233 8 -230 22 4 20 61 58 112 74 57 17
293 14 501 -7 223 -22 524 -63 604 -82 179 -41 -27 28 -269 91 -268 69 -347
79 -629 80 l-254 0 -9 24 c-6 17 -4 31 7 47 27 42 50 47 184 41 188 -9 738
-85 885 -122 107 -28 69 -8 -86 43 -237 79 -405 118 -674 157 -136 19 -253 40
-261 46 -18 16 -16 54 3 70 20 17 95 28 154 23 25 -2 81 -6 125 -9z"/>
<path d="M958 999 c156 -212 422 -451 666 -598 588 -356 1306 -464 1983 -300
187 45 341 102 528 193 264 130 456 266 655 466 102 102 244 269 235 278 -2 2
-46 1 -96 -3 l-93 -7 -111 -116 c-571 -595 -1420 -852 -2250 -682 -470 96
-872 314 -1213 656 -113 114 -149 144 -170 144 -15 0 -58 3 -97 7 l-69 6 32
-44z"/>
</g>
</svg>
